<?xml version="1.0" standalone="no"?>
<!DOCTYPE svg PUBLIC "-//W3C//DTD SVG 20010904//EN"
 "http://www.w3.org/TR/2001/REC-SVG-20010904/DTD/svg10.dtd">
<svg version="1.0" xmlns="http://www.w3.org/2000/svg"
 width="512.000000pt" height="512.000000pt" viewBox="0 0 512.000000 512.000000"
 preserveAspectRatio="xMidYMid meet">
<metadata>
Created by potrace 1.11, written by Peter Selinger 2001-2013
</metadata>
<g transform="translate(0.000000,512.000000) scale(0.100000,-0.100000)"
fill="#000000" stroke="none">
<path d="M3694 4800 l-259 -320 -332 0 -333 0 0 -640 0 -640 333 0 332 0 259
-320 c142 -176 261 -322 265 -324 5 -4 1125 674 1142 691 8 8 -204 366 -219
371 -4 1 -189 -108 -411 -243 -222 -135 -407 -244 -411 -243 -4 2 -102 120
-218 263 l-211 260 0 185 0 185 211 260 c116 143 214 261 218 263 4 1 189
-108 411 -243 222 -135 407 -244 411 -243 15 5 227 363 219 371 -17 17 -1125
687 -1136 687 -7 0 -129 -144 -271 -320z"/>
<path d="M760 4694 c-214 -40 -337 -93 -465 -204 -300 -258 -384 -699 -200
-1048 119 -225 321 -380 571 -438 111 -26 291 -24 399 5 301 80 531 306 617
608 32 113 32 333 0 446 -87 302 -319 531 -617 607 -77 20 -253 34 -305 24z
m243 -464 c251 -96 346 -405 193 -627 -151 -220 -461 -242 -646 -47 -217 230
-110 601 199 690 65 19 183 12 254 -16z"/>
<path d="M755 4057 c-92 -45 -137 -117 -137 -218 0 -239 311 -328 437 -125 27
44 30 58 30 126 0 68 -3 82 -30 126 -63 102 -195 142 -300 91z"/>
<path d="M1900 4188 c46 -135 55 -192 54 -353 0 -156 -17 -255 -65 -377 l-19
-48 345 0 345 0 0 430 0 430 -344 0 -345 0 29 -82z"/>
<path d="M1575 2966 c-116 -119 -255 -196 -435 -242 -114 -29 -375 -27 -485 4
-110 31 -286 120 -369 187 -38 30 -71 53 -73 51 -3 -2 302 -525 677 -1163
l681 -1158 -576 -3 -575 -2 0 -320 0 -320 1925 0 1925 0 0 320 0 320 -594 0
-594 0 -703 1202 c-387 661 -708 1202 -714 1204 -5 1 -46 -35 -90 -80z"/>
</g>
</svg>
